<?xml version="1.0" standalone="no"?>
<!DOCTYPE svg PUBLIC "-//W3C//DTD SVG 20010904//EN"
 "http://www.w3.org/TR/2001/REC-SVG-20010904/DTD/svg10.dtd">
<svg version="1.0" xmlns="http://www.w3.org/2000/svg"
 width="206.000000pt" height="147.000000pt" viewBox="0 0 206.000000 147.000000"
 preserveAspectRatio="xMidYMid meet">

<g transform="translate(0.000000,147.000000) scale(0.100000,-0.100000)"
fill="#000000" stroke="none">
<path d="M870 1445 c-226 -46 -419 -203 -515 -419 -14 -32 -24 -60 -23 -62 2
-1 29 15 60 36 59 40 154 80 188 80 10 0 40 18 65 40 92 79 254 140 375 140
117 0 259 -51 356 -128 42 -33 53 -38 74 -30 14 5 54 8 90 6 59 -4 62 -3 35 9
-17 7 -86 31 -155 54 -68 22 -135 46 -148 53 -22 11 -21 12 23 34 25 12 45 26
45 31 0 6 28 11 63 13 l62 3 -64 42 c-148 99 -346 135 -531 98z"/>
<path d="M96 848 c-29 -47 -96 -218 -96 -247 0 -41 25 -41 48 -1 16 28 20 30
83 30 62 0 67 -2 73 -24 3 -13 13 -26 21 -30 18 -6 45 2 45 15 0 14 -100 252
-112 267 -16 19 -46 14 -62 -10z m56 -113 l17 -45 -40 0 c-23 0 -39 3 -37 8 2
4 10 24 18 45 8 20 17 37 20 37 3 0 13 -20 22 -45z"/>
<path d="M322 861 c-19 -11 -22 -265 -4 -283 22 -22 47 4 50 51 2 23 8 41 15
41 7 0 33 -23 58 -51 37 -42 49 -50 67 -45 29 9 28 16 -8 61 l-31 38 25 26
c14 14 28 38 31 52 9 35 -17 84 -55 104 -31 16 -126 20 -148 6z m132 -73 c17
-27 -5 -52 -48 -56 l-36 -3 0 41 0 41 36 -3 c22 -2 42 -10 48 -20z"/>
<path d="M688 858 c-15 -13 -118 -241 -118 -263 0 -7 7 -16 16 -19 19 -7 54
20 54 41 0 10 18 13 69 13 64 0 69 -2 75 -24 6 -26 28 -39 51 -30 22 9 20 18
-36 149 -65 153 -73 163 -111 133z m41 -166 c-10 -2 -28 -2 -39 0 -19 3 -19 4
1 48 l21 45 18 -45 c17 -44 17 -45 -1 -48z"/>
<path d="M954 850 c-77 -38 -106 -134 -61 -200 50 -75 117 -96 190 -61 109 53
115 199 11 258 -48 28 -87 29 -140 3z m127 -69 c57 -58 21 -146 -60 -146 -50
0 -79 26 -88 78 -5 31 -1 40 25 67 41 40 83 41 123 1z"/>
<path d="M1220 846 c-5 -14 -6 -79 -3 -146 6 -126 15 -147 48 -120 19 16 22
259 3 278 -19 19 -38 14 -48 -12z"/>
<path d="M1341 813 c-67 -75 -68 -98 -1 -181 32 -38 58 -62 71 -62 36 0 32 28
-15 89 -25 33 -46 63 -46 68 0 5 21 32 46 61 28 31 44 58 40 67 -11 29 -45 15
-95 -42z"/>
<path d="M1588 853 c-23 -28 -110 -239 -106 -260 6 -31 36 -27 56 6 16 29 20
31 80 31 57 0 63 -2 74 -24 6 -14 17 -27 24 -30 18 -7 44 3 44 17 0 14 -100
248 -112 265 -15 17 -42 15 -60 -5z m56 -125 l15 -38 -41 0 c-34 0 -39 3 -33
18 4 9 12 30 17 45 12 32 20 28 42 -25z"/>
<path d="M1807 863 c-4 -3 -7 -66 -7 -138 0 -138 7 -163 43 -149 13 5 17 24
19 89 l3 84 73 -90 c102 -124 106 -122 110 59 2 121 0 143 -13 148 -31 12 -44
-15 -47 -94 l-3 -77 -65 80 c-78 97 -93 109 -113 88z"/>
<path d="M345 434 c78 -189 250 -353 432 -413 53 -18 87 -21 235 -21 160 0
178 2 243 25 82 30 157 74 217 127 l43 38 -69 -31 c-38 -17 -99 -37 -135 -45
-93 -19 -270 -18 -358 3 -77 18 -95 33 -40 33 47 0 178 35 224 59 l38 21 -45
-8 c-25 -4 -88 -7 -140 -6 -78 1 -108 6 -165 28 -72 28 -157 81 -196 122 -14
15 -34 24 -53 24 -53 0 -156 29 -203 56 l-44 27 16 -39z"/>
</g>
</svg>
