<?xml version="1.0" standalone="no"?>
<!DOCTYPE svg PUBLIC "-//W3C//DTD SVG 20010904//EN"
 "http://www.w3.org/TR/2001/REC-SVG-20010904/DTD/svg10.dtd">
<svg version="1.0" xmlns="http://www.w3.org/2000/svg"
 width="624.000000pt" height="400.000000pt" viewBox="0 0 624.000000 400.000000"
 preserveAspectRatio="xMidYMid meet">

<g transform="translate(0.000000,400.000000) scale(0.100000,-0.100000)"
fill="#000000" stroke="none">
<path d="M1557 2504 c-14 -15 -6 -34 14 -34 14 0 19 5 17 17 -3 18 -20 27 -31
17z"/>
<path d="M1447 2483 c-16 -15 -5 -55 22 -85 24 -26 32 -30 42 -21 10 10 10 18
1 35 -6 13 -16 35 -22 51 -9 26 -29 35 -43 20z"/>
<path d="M1660 2469 c-15 -26 -6 -49 19 -49 19 0 37 42 26 60 -10 17 -34 11
-45 -11z"/>
<path d="M1780 2475 c0 -21 30 -31 40 -14 11 17 3 29 -21 29 -10 0 -19 -7 -19
-15z"/>
<path d="M1267 2443 c-20 -19 13 -73 45 -73 13 0 9 29 -8 55 -17 26 -26 30
-37 18z"/>
<path d="M1870 2395 c-18 -19 -21 -28 -12 -37 9 -9 16 -7 32 7 11 10 20 24 20
31 0 24 -17 23 -40 -1z"/>
<path d="M1645 2390 c-9 -14 27 -59 47 -60 30 0 31 22 2 46 -32 26 -40 28 -49
14z"/>
<path d="M1580 2370 c0 -13 7 -20 20 -20 13 0 20 7 20 20 0 13 -7 20 -20 20
-13 0 -20 -7 -20 -20z"/>
<path d="M1736 2381 c-3 -5 0 -14 8 -20 10 -8 16 -8 25 2 6 8 8 17 4 20 -9 10
-31 9 -37 -2z"/>
<path d="M1800 2351 c0 -26 17 -36 35 -21 18 15 8 40 -16 40 -12 0 -19 -7 -19
-19z"/>
<path d="M1484 2329 c-10 -17 23 -46 37 -32 7 7 9 19 6 27 -7 18 -33 21 -43 5z"/>
<path d="M1931 2326 c-16 -19 -6 -36 20 -36 15 0 20 6 17 22 -4 27 -21 33 -37
14z"/>
<path d="M1143 2305 c-7 -20 -5 -21 35 -30 25 -5 33 -3 38 10 4 10 1 21 -7 26
-22 14 -59 10 -66 -6z"/>
<path d="M1400 2300 c0 -15 5 -20 18 -18 9 2 17 10 17 18 0 8 -8 16 -17 18
-13 2 -18 -3 -18 -18z"/>
<path d="M1605 2310 c-4 -6 -18 -15 -31 -20 -13 -5 -24 -16 -24 -25 0 -20 39
-20 46 0 4 8 15 15 26 15 13 0 18 6 16 17 -4 20 -24 28 -33 13z"/>
<path d="M1685 2308 c-8 -23 10 -83 25 -83 23 0 21 89 -3 93 -9 2 -19 -2 -22
-10z"/>
<path d="M2392 2308 c-17 -22 -99 -546 -89 -572 5 -13 16 -16 44 -14 37 3 38
4 48 58 l11 55 52 3 c49 3 52 2 57 -25 18 -87 19 -88 58 -91 27 -2 39 1 43 13
4 9 -6 87 -21 173 -15 87 -34 209 -42 272 -8 63 -20 121 -25 128 -6 7 -34 12
-68 12 -34 0 -62 -5 -68 -12z m83 -269 c8 -46 15 -87 15 -91 0 -5 -14 -8 -31
-8 l-32 0 7 53 c13 105 18 138 22 134 3 -2 11 -42 19 -88z"/>
<path d="M2737 2313 c-4 -3 -7 -139 -7 -300 l0 -294 48 3 47 3 0 110 0 110 27
3 c23 3 28 -2 38 -35 6 -21 26 -73 43 -115 30 -73 34 -78 62 -78 42 0 59 13
52 41 -8 38 -59 173 -70 187 -7 9 -4 19 10 35 57 62 73 162 40 249 -28 72 -61
88 -184 88 -55 0 -103 -3 -106 -7z m193 -103 c15 -15 20 -33 20 -70 0 -67 -24
-92 -83 -88 l-42 3 -2 75 c-2 41 -1 81 2 88 7 20 82 15 105 -8z"/>
<path d="M3251 2298 c-5 -13 -11 -50 -15 -83 -3 -33 -23 -154 -43 -269 -39
-225 -39 -226 18 -226 34 0 45 14 53 73 l7 47 53 0 53 0 9 -57 c9 -57 9 -58
45 -61 55 -5 62 11 45 104 -8 43 -17 106 -21 139 -12 112 -57 340 -68 347 -7
4 -38 8 -70 8 -51 0 -59 -3 -66 -22z m94 -270 l7 -88 -31 0 c-26 0 -31 4 -28
18 3 9 11 52 18 95 7 42 16 74 20 70 4 -5 10 -47 14 -95z"/>
<path d="M3643 2300 c-18 -10 -38 -29 -46 -42 -22 -35 -29 -137 -21 -307 l7
-154 32 -36 c31 -34 37 -36 107 -39 64 -3 77 -1 102 19 50 39 56 70 56 277 0
108 -5 202 -11 220 -6 16 -27 42 -48 56 -47 33 -129 36 -178 6z m134 -110 c9
-17 13 -75 13 -176 0 -130 -3 -155 -17 -173 -23 -27 -58 -34 -78 -15 -20 20
-22 363 -3 382 21 21 71 10 85 -18z"/>
<path d="M3997 2314 c-4 -4 -7 -139 -7 -301 l0 -293 45 0 45 0 0 95 c0 52 3
95 8 95 4 0 29 -43 56 -95 52 -100 67 -111 117 -85 33 18 31 24 -87 237 l-29
52 34 63 c19 35 40 70 46 78 7 8 23 39 35 68 22 51 22 53 5 72 -42 47 -76 21
-134 -102 -18 -38 -36 -68 -41 -68 -5 0 -11 42 -12 93 l-3 92 -35 3 c-20 2
-39 0 -43 -4z"/>
<path d="M4471 2298 c-4 -13 -11 -39 -14 -58 -3 -19 -25 -140 -48 -269 -46
-255 -46 -251 18 -251 39 0 53 21 53 79 l0 41 55 0 c60 0 61 -2 67 -80 3 -34
4 -35 48 -35 42 0 45 2 48 28 3 25 -15 139 -73 466 -8 47 -21 89 -28 93 -6 4
-36 8 -65 8 -45 0 -54 -3 -61 -22z m88 -255 c16 -104 16 -103 -25 -103 -29 0
-34 3 -30 18 2 9 10 52 17 95 7 42 16 74 20 70 3 -5 11 -40 18 -80z"/>
<path d="M4815 2298 c-3 -13 -4 -147 -3 -298 l3 -275 45 0 45 0 -1 153 c-1 83
2 152 7 152 4 0 15 -21 22 -47 8 -27 33 -88 54 -138 22 -49 43 -98 46 -107 8
-21 69 -25 85 -5 6 7 9 117 8 297 l-1 285 -42 3 -43 3 -1 -113 c0 -62 -1 -132
-1 -155 0 -24 -4 -43 -9 -43 -5 0 -9 4 -9 9 0 5 -18 47 -39 93 -22 45 -45 102
-52 125 -16 55 -42 83 -79 83 -22 0 -31 -6 -35 -22z"/>
<path d="M1796 2281 c-8 -12 21 -34 34 -26 17 11 11 35 -9 35 -11 0 -22 -4
-25 -9z"/>
<path d="M1277 2263 c-15 -14 -7 -43 12 -43 26 0 36 17 21 35 -14 16 -23 19
-33 8z"/>
<path d="M1395 2260 c-8 -14 3 -30 21 -30 8 0 14 9 14 20 0 21 -24 28 -35 10z"/>
<path d="M1865 2259 c-4 -6 3 -22 16 -35 19 -20 31 -24 64 -22 32 2 40 7 40
23 0 16 -8 21 -35 23 -19 2 -39 8 -44 13 -13 12 -33 11 -41 -2z"/>
<path d="M1094 2216 c-9 -22 4 -36 32 -36 21 0 25 4 22 23 -4 26 -45 37 -54
13z"/>
<path d="M1517 2223 c-11 -10 -8 -18 17 -48 15 -18 30 -26 40 -22 22 9 20 28
-3 34 -11 3 -21 13 -24 24 -5 19 -18 25 -30 12z"/>
<path d="M1630 2210 c0 -15 5 -20 18 -18 9 2 17 10 17 18 0 8 -8 16 -17 18
-13 2 -18 -3 -18 -18z"/>
<path d="M1721 2169 c-22 -45 -28 -66 -20 -75 17 -21 38 -5 51 40 6 22 16 47
21 54 7 9 5 18 -5 29 -15 14 -19 9 -47 -48z"/>
<path d="M1453 2204 c-3 -8 -1 -20 5 -26 15 -15 43 8 35 28 -7 19 -32 18 -40
-2z"/>
<path d="M1817 2203 c-4 -3 -7 -15 -7 -25 0 -10 -4 -18 -10 -18 -15 0 -12 -37
4 -43 16 -6 43 19 33 30 -4 3 1 12 10 18 15 11 15 15 4 29 -15 17 -24 20 -34
9z"/>
<path d="M2030 2169 c0 -25 33 -22 38 4 2 12 -3 17 -17 17 -15 0 -21 -6 -21
-21z"/>
<path d="M1374 2169 c-3 -6 -2 -15 4 -21 13 -13 32 -2 32 18 0 16 -26 19 -36
3z"/>
<path d="M1877 2163 c-3 -5 -2 -15 3 -22 10 -17 43 -6 38 12 -6 15 -34 22 -41
10z"/>
<path d="M1637 2147 c-3 -8 -1 -20 3 -27 11 -18 41 5 33 26 -7 18 -29 18 -36
1z"/>
<path d="M1510 2135 c-14 -16 -5 -35 16 -35 15 0 20 35 5 44 -5 3 -14 -1 -21
-9z"/>
<path d="M1363 2123 c-21 -8 -15 -43 6 -43 11 0 23 5 27 11 8 14 -17 38 -33
32z"/>
<path d="M1129 2101 c-19 -16 -22 -22 -12 -32 19 -19 68 1 68 26 0 27 -27 30
-56 6z"/>
<path d="M1244 2105 c-4 -9 -2 -21 4 -27 15 -15 44 -1 40 19 -4 23 -36 29 -44
8z"/>
<path d="M1825 2100 c-3 -5 -15 -10 -26 -10 -14 0 -19 -5 -17 -17 3 -14 12
-17 38 -15 38 3 54 20 38 39 -13 16 -25 17 -33 3z"/>
<path d="M1556 2083 c-9 -22 7 -36 33 -28 30 9 28 45 -3 45 -13 0 -27 -8 -30
-17z"/>
<path d="M1928 2094 c-4 -4 -5 -17 -2 -29 4 -17 0 -24 -15 -28 -13 -3 -21 -13
-21 -26 0 -24 22 -28 40 -6 7 8 16 12 21 10 4 -3 13 4 19 15 6 11 20 20 31 20
18 0 37 25 27 35 -9 9 -93 17 -100 9z"/>
<path d="M1436 2081 c-10 -15 5 -41 23 -41 25 0 32 10 20 31 -10 20 -34 25
-43 10z"/>
<path d="M1609 2041 c-20 -16 -22 -22 -11 -33 10 -10 18 -10 40 3 15 8 27 21
27 29 0 23 -29 23 -56 1z"/>
<path d="M1334 2015 c-4 -9 -2 -21 4 -27 15 -15 44 -1 40 19 -4 23 -36 29 -44
8z"/>
<path d="M1466 2021 c-10 -16 5 -42 23 -39 21 4 21 42 -1 46 -9 2 -19 -1 -22
-7z"/>
<path d="M1750 1999 c0 -13 7 -19 23 -18 12 0 31 -1 42 -3 14 -2 20 3 20 17 0
17 -7 20 -42 22 -36 1 -43 -2 -43 -18z"/>
<path d="M1082 1998 c-19 -19 -15 -48 8 -48 21 0 45 34 35 50 -8 14 -28 13
-43 -2z"/>
<path d="M2037 1994 c-16 -16 -7 -44 14 -44 15 0 20 5 17 22 -3 22 -19 33 -31
22z"/>
<path d="M1657 1966 c-7 -18 1 -26 25 -26 11 0 18 7 18 20 0 23 -35 28 -43 6z"/>
<path d="M1213 1953 c-28 -19 -31 -53 -5 -53 20 0 62 39 62 58 0 17 -31 14
-57 -5z"/>
<path d="M1864 1959 c-9 -16 16 -38 54 -45 43 -9 44 19 2 41 -35 18 -46 19
-56 4z"/>
<path d="M1537 1954 c-14 -14 -7 -35 11 -32 9 2 17 10 17 17 0 16 -18 25 -28
15z"/>
<path d="M1722 1937 c-14 -16 -6 -27 20 -27 13 0 18 6 16 17 -4 22 -22 27 -36
10z"/>
<path d="M1374 1929 c-3 -6 0 -17 8 -25 13 -13 16 -13 27 0 7 8 10 20 6 26 -8
13 -32 13 -41 -1z"/>
<path d="M1789 1924 c-9 -11 -9 -18 -1 -26 14 -14 42 -3 42 16 0 20 -27 27
-41 10z"/>
<path d="M1632 1918 c-15 -15 -15 -45 0 -54 13 -8 38 22 38 48 0 21 -20 24
-38 6z"/>
<path d="M1483 1889 c-16 -16 -5 -39 19 -39 14 0 19 6 16 22 -4 25 -19 33 -35
17z"/>
<path d="M1760 1865 c0 -28 12 -32 30 -10 14 16 6 35 -16 35 -8 0 -14 -10 -14
-25z"/>
<path d="M1877 1877 c-3 -8 -2 -20 3 -27 11 -18 42 -4 38 17 -4 22 -34 29 -41
10z"/>
<path d="M1572 1853 c2 -10 10 -18 18 -18 8 0 16 8 18 18 2 12 -3 17 -18 17
-15 0 -20 -5 -18 -17z"/>
<path d="M1975 1861 c-9 -16 3 -31 26 -31 14 0 19 6 17 17 -4 20 -33 29 -43
14z"/>
<path d="M1257 1844 c-14 -15 -6 -34 14 -34 14 0 19 5 17 17 -3 18 -20 27 -31
17z"/>
<path d="M1727 1844 c-14 -15 -6 -34 14 -34 14 0 19 5 17 17 -3 18 -20 27 -31
17z"/>
<path d="M1801 1837 c-8 -8 -7 -15 3 -26 8 -9 16 -27 18 -41 4 -35 39 -33 51
3 7 22 5 32 -8 47 -21 23 -50 31 -64 17z"/>
<path d="M1152 1828 c-16 -16 -15 -35 3 -42 13 -5 45 27 45 46 0 12 -35 9 -48
-4z"/>
<path d="M1355 1797 c-19 -28 -19 -56 1 -64 20 -7 32 5 40 43 8 40 -18 53 -41
21z"/>
<path d="M1604 1785 c-7 -18 3 -35 22 -35 8 0 14 10 14 25 0 27 -27 35 -36 10z"/>
<path d="M1455 1760 c-9 -15 4 -30 26 -30 12 0 19 7 19 20 0 21 -33 29 -45 10z"/>
<path d="M1526 1745 c-7 -29 2 -75 15 -75 16 0 32 47 25 74 -8 33 -32 34 -40
1z"/>
<path d="M1700 1740 c-13 -8 -12 -14 5 -47 24 -46 55 -57 55 -19 0 35 -40 79
-60 66z"/>
<path d="M1242 1707 c-15 -17 1 -42 23 -33 18 6 17 37 -1 43 -6 2 -16 -2 -22
-10z"/>
<path d="M1875 1710 c-6 -10 29 -50 45 -50 17 0 23 29 10 45 -14 17 -46 20
-55 5z"/>
<path d="M1419 1613 c-13 -35 -8 -68 11 -68 8 0 18 14 23 32 17 57 -14 89 -34
36z"/>
<path d="M1597 1614 c-14 -15 -6 -34 14 -34 14 0 19 5 17 17 -3 18 -20 27 -31
17z"/>
<path d="M1667 1578 c-7 -23 5 -48 24 -48 23 0 29 11 22 38 -6 24 -39 30 -46
10z"/>
</g>
</svg>
