<?xml version="1.0" standalone="no"?>
<!DOCTYPE svg PUBLIC "-//W3C//DTD SVG 20010904//EN"
 "http://www.w3.org/TR/2001/REC-SVG-20010904/DTD/svg10.dtd">
<svg version="1.0" xmlns="http://www.w3.org/2000/svg"
 width="1120.000000pt" height="1120.000000pt" viewBox="0 0 1120.000000 1120.000000"
 preserveAspectRatio="xMidYMid meet">

<g transform="translate(0.000000,1120.000000) scale(0.100000,-0.100000)"
fill="#000000" stroke="none">
<path d="M5460 8143 c-879 -63 -1572 -471 -2060 -1213 -59 -90 -111 -191 -104
-202 4 -6 3 -8 -3 -5 -6 4 -22 -20 -38 -56 -15 -34 -36 -81 -47 -105 -10 -23
-16 -48 -12 -54 4 -6 3 -8 -4 -4 -6 3 -13 -4 -17 -16 -3 -13 -10 -32 -15 -43
-18 -40 -49 -129 -46 -132 1 -2 16 8 32 23 289 254 608 416 919 465 l80 12 75
73 c175 168 313 261 530 356 525 229 1019 247 1560 55 237 -84 488 -236 641
-390 l78 -77 43 15 c94 32 195 46 328 46 156 1 234 -14 346 -65 94 -44 87 -28
-9 21 -153 77 -458 189 -717 263 -253 73 -341 101 -500 162 -165 64 -374 134
-427 144 -18 3 -33 10 -33 15 0 5 -7 6 -15 2 -9 -3 -25 3 -37 13 -12 11 -18
13 -13 5 6 -11 3 -13 -16 -7 -13 4 -40 12 -59 17 -35 8 -35 8 7 5 43 -4 142
25 154 46 3 5 24 11 45 13 21 1 50 7 65 13 25 10 101 21 319 47 208 25 541 15
680 -20 30 -8 56 -13 57 -11 6 5 -209 160 -289 209 -288 174 -628 300 -948
351 -183 29 -396 40 -550 29z m-2212 -1548 c-6 -14 -13 -23 -15 -21 -5 5 15
46 22 46 3 0 -1 -11 -7 -25z"/>
<path d="M2365 6015 c-22 -8 -46 -22 -54 -32 -40 -52 -395 -889 -395 -932 0
-69 90 -104 166 -65 22 11 39 35 63 87 17 40 35 79 38 88 4 14 33 17 192 21
232 7 272 3 281 -26 4 -11 20 -51 36 -88 23 -52 37 -70 63 -82 88 -42 181 9
161 87 -5 21 -215 531 -320 776 -41 98 -72 146 -102 160 -41 18 -89 21 -129 6z
m124 -442 c35 -82 65 -156 68 -165 5 -17 -6 -18 -136 -18 -77 0 -141 3 -141 8
0 15 133 322 140 322 4 0 35 -66 69 -147z"/>
<path d="M4448 6016 c-49 -18 -70 -44 -112 -141 -18 -44 -93 -217 -166 -385
-187 -429 -182 -417 -175 -451 9 -42 49 -69 101 -69 59 0 92 31 138 129 l38
81 224 0 225 0 15 -37 c57 -141 87 -173 164 -173 33 0 48 6 71 29 35 35 36 62
8 128 -11 26 -40 95 -64 153 -113 278 -269 639 -290 676 -17 29 -37 46 -65 58
-48 19 -63 19 -112 2z m121 -453 c34 -82 63 -152 64 -158 1 -6 -51 -11 -135
-13 -76 -1 -138 1 -138 6 0 7 22 60 120 290 5 12 14 22 19 22 4 0 36 -66 70
-147z"/>
<path d="M5485 6016 c-89 -22 -186 -77 -256 -146 -212 -209 -211 -529 2 -741
70 -69 174 -129 259 -148 64 -15 186 -13 246 3 85 22 186 82 253 149 214 213
205 547 -21 752 -133 122 -317 172 -483 131z m262 -237 c238 -113 237 -447 0
-564 -79 -38 -148 -43 -238 -16 -61 19 -80 31 -125 76 -210 216 -43 567 256
538 25 -3 73 -18 107 -34z"/>
<path d="M6362 6015 c-61 -27 -62 -36 -62 -507 0 -259 4 -437 10 -460 23 -80
119 -106 182 -49 l33 29 3 462 c3 514 5 497 -63 526 -42 17 -61 17 -103 -1z"/>
<path d="M7673 6015 c-47 -20 -70 -63 -188 -345 -59 -140 -138 -328 -176 -418
-40 -93 -69 -177 -69 -196 0 -75 111 -115 175 -64 16 12 45 59 67 105 l38 83
226 -2 225 -3 36 -84 c42 -96 71 -121 141 -121 35 0 49 6 74 30 46 47 65 -7
-245 719 -50 118 -100 227 -111 244 -42 60 -124 82 -193 52z m77 -288 c0 -2
29 -75 65 -162 36 -88 65 -163 65 -167 0 -5 -63 -8 -140 -8 -77 0 -140 4 -140
9 0 4 19 53 43 107 23 54 54 127 67 162 14 34 28 62 32 62 5 0 8 -1 8 -3z"/>
<path d="M8470 6021 c-35 -9 -55 -23 -69 -48 -8 -15 -11 -152 -11 -468 0 -489
0 -489 60 -520 54 -28 117 -15 147 32 16 24 19 59 23 305 l5 277 90 -112 c49
-62 124 -152 166 -202 41 -49 110 -134 152 -187 78 -99 115 -128 162 -128 38
0 79 25 93 56 18 38 17 906 -1 943 -6 14 -29 34 -50 45 -33 16 -45 17 -78 7
-72 -22 -73 -29 -79 -351 l-5 -285 -102 125 c-56 69 -165 205 -243 303 -156
196 -193 225 -260 208z"/>
<path d="M3103 6008 c-51 -25 -53 -41 -53 -518 0 -394 2 -445 17 -470 32 -55
120 -69 170 -26 28 24 28 25 33 173 l5 148 29 3 c76 9 87 1 212 -164 65 -86
131 -162 146 -170 15 -8 51 -14 81 -14 53 0 76 13 101 57 12 21 -38 96 -206
309 -6 8 6 20 35 37 57 34 104 87 136 157 21 45 26 70 26 140 0 72 -5 94 -28
145 -35 76 -86 128 -162 168 l-60 32 -230 2 c-151 2 -238 -1 -252 -9z m444
-218 c45 -27 65 -62 65 -115 0 -53 -20 -88 -65 -115 -27 -17 -51 -20 -154 -20
l-123 0 0 135 0 135 123 0 c103 0 127 -3 154 -20z"/>
<path d="M6888 5988 c-20 -18 -96 -105 -170 -193 l-133 -160 -6 -110 c-4 -87
-2 -115 10 -135 22 -38 250 -318 302 -372 46 -47 47 -48 110 -48 99 0 134 36
100 103 -10 19 -83 117 -163 218 -79 101 -152 195 -161 209 -18 29 -34 7 149
211 139 154 194 226 194 250 0 10 -9 28 -20 39 -17 17 -33 20 -98 20 -75 0
-80 -2 -114 -32z"/>
<path d="M3151 4547 c22 -56 65 -151 95 -212 59 -116 173 -308 186 -313 4 -2
8 -8 8 -14 0 -15 177 -244 254 -328 262 -286 519 -467 906 -637 65 -29 120
-46 127 -39 4 3 -1 6 -9 6 -18 0 -68 44 -68 60 0 6 -4 9 -9 5 -5 -3 -12 -1
-16 5 -3 5 1 10 10 10 11 0 15 5 11 15 -3 9 0 15 9 15 11 0 15 11 15 40 0 36
3 40 24 40 22 0 25 5 29 43 l4 42 1 -42 c2 -40 4 -43 31 -43 27 0 28 2 35 61
3 34 6 88 6 120 l0 58 43 4 42 4 -42 1 c-24 1 -43 6 -43 11 0 13 137 19 210 9
140 -20 489 18 670 74 98 29 228 77 297 109 34 16 64 29 67 29 10 0 206 113
203 116 -2 2 -34 -7 -72 -21 -220 -80 -552 -120 -780 -96 -476 52 -909 265
-1220 602 l-50 54 -110 -3 c-290 -9 -649 108 -857 279 l-46 39 39 -103z m1022
-290 c3 -8 -1 -14 -8 -14 -7 0 -11 6 -8 14 3 7 6 13 8 13 2 0 5 -6 8 -13z
m175 -500 c7 -15 22 -33 33 -40 10 -6 19 -17 19 -24 0 -7 11 -13 25 -13 23 0
25 -4 25 -40 0 -29 4 -40 15 -40 9 0 15 9 15 25 0 30 11 32 34 6 11 -13 15
-27 11 -40 -5 -17 -2 -21 14 -21 12 0 21 -4 21 -10 0 -23 -103 -5 -219 39 -64
24 -72 31 -40 32 19 0 16 3 -15 15 -29 10 -42 11 -47 3 -5 -8 -12 -8 -25 0
-18 10 -18 10 4 11 21 0 22 4 22 66 l0 65 47 -3 c41 -3 50 -7 61 -31z m-161
-93 c-3 -3 -12 -4 -19 -1 -8 3 -5 6 6 6 11 1 17 -2 13 -5z m426 -565 c-8 -8
-16 -8 -30 0 -16 9 -14 10 12 11 21 0 26 -3 18 -11z m7 -39 c0 -5 -2 -10 -4
-10 -3 0 -8 5 -11 10 -3 6 -1 10 4 10 6 0 11 -4 11 -10z"/>
<path d="M4273 3673 c9 -2 25 -2 35 0 9 3 1 5 -18 5 -19 0 -27 -2 -17 -5z"/>
<path d="M7330 3599 c-226 -138 -539 -250 -832 -298 -129 -21 -348 -41 -455
-41 -35 0 -63 -4 -63 -9 0 -5 -8 -12 -17 -14 -10 -3 12 -5 49 -6 37 0 69 -4
71 -8 3 -5 -29 -7 -71 -7 -43 1 -59 0 -37 -2 70 -7 85 -14 126 -54 45 -43 59
-49 59 -23 0 15 1 15 18 0 21 -19 62 -23 62 -6 0 6 6 9 13 6 6 -2 11 -9 10
-15 -4 -15 35 -35 53 -28 26 10 143 -52 127 -68 -14 -14 30 -5 69 14 23 11 46
20 51 20 23 0 299 147 381 202 134 91 143 97 236 171 101 82 238 211 219 206
-2 0 -33 -18 -69 -40z m-810 -539 c0 -5 -7 -10 -16 -10 -8 0 -12 5 -9 10 3 6
10 10 16 10 5 0 9 -4 9 -10z"/>
<path d="M5853 3263 c9 -2 23 -2 30 0 6 3 -1 5 -18 5 -16 0 -22 -2 -12 -5z"/>
<path d="M5933 3253 c9 -2 23 -2 30 0 6 3 -1 5 -18 5 -16 0 -22 -2 -12 -5z"/>
<path d="M4750 2990 c8 -5 24 -9 35 -9 l20 0 -20 9 c-11 5 -27 9 -35 9 -13 1
-13 0 0 -9z"/>
<path d="M4858 2953 c7 -3 16 -2 19 1 4 3 -2 6 -13 5 -11 0 -14 -3 -6 -6z"/>
</g>
</svg>
